%TF.GenerationSoftware,KiCad,Pcbnew,(5.1.10)-1*%
%TF.CreationDate,2021-05-20T01:46:34-05:00*%
%TF.ProjectId,smol-keypad,736d6f6c-2d6b-4657-9970-61642e6b6963,rev?*%
%TF.SameCoordinates,Original*%
%TF.FileFunction,Soldermask,Bot*%
%TF.FilePolarity,Negative*%
%FSLAX46Y46*%
G04 Gerber Fmt 4.6, Leading zero omitted, Abs format (unit mm)*
G04 Created by KiCad (PCBNEW (5.1.10)-1) date 2021-05-20 01:46:34*
%MOMM*%
%LPD*%
G01*
G04 APERTURE LIST*
%ADD10C,0.150000*%
%ADD11R,2.000000X2.000000*%
%ADD12C,2.000000*%
%ADD13R,3.200000X2.000000*%
%ADD14R,1.200000X0.900000*%
%ADD15R,2.550000X2.500000*%
%ADD16C,1.701800*%
%ADD17C,3.987800*%
%ADD18C,3.000000*%
%ADD19C,4.400000*%
%ADD20C,1.600000*%
%ADD21R,1.600000X1.600000*%
G04 APERTURE END LIST*
D10*
X157900611Y-32242012D02*
X158376801Y-32575345D01*
X157900611Y-32813440D02*
X158900611Y-32813440D01*
X158900611Y-32432488D01*
X158852992Y-32337250D01*
X158805372Y-32289631D01*
X158710134Y-32242012D01*
X158567277Y-32242012D01*
X158472039Y-32289631D01*
X158424420Y-32337250D01*
X158376801Y-32432488D01*
X158376801Y-32813440D01*
X158186325Y-31861059D02*
X158186325Y-31384869D01*
X157900611Y-31956297D02*
X158900611Y-31622964D01*
X157900611Y-31289631D01*
X158900611Y-31051536D02*
X157900611Y-30813440D01*
X158614896Y-30622964D01*
X157900611Y-30432488D01*
X158900611Y-30194393D01*
D11*
%TO.C,SW1*%
X94893664Y-39767152D03*
D12*
X94893664Y-42267152D03*
X94893664Y-44767152D03*
D13*
X102393664Y-36667152D03*
X102393664Y-47867152D03*
D12*
X109393664Y-39767152D03*
X109393664Y-44767152D03*
%TD*%
D14*
%TO.C,D17*%
X106560848Y-46570272D03*
X106560848Y-49870272D03*
%TD*%
D15*
%TO.C,MX4*%
X151983716Y-59967626D03*
D16*
X154463716Y-62507626D03*
X164623716Y-62507626D03*
D17*
X159543716Y-62507626D03*
D18*
X155733716Y-59967626D03*
X162083716Y-57427626D03*
D15*
X165833716Y-57427626D03*
%TD*%
%TO.C,MX16*%
X151983716Y-117117626D03*
D16*
X154463716Y-119657626D03*
X164623716Y-119657626D03*
D17*
X159543716Y-119657626D03*
D18*
X155733716Y-117117626D03*
X162083716Y-114577626D03*
D15*
X165833716Y-114577626D03*
%TD*%
%TO.C,MX15*%
X132933716Y-117117626D03*
D16*
X135413716Y-119657626D03*
X145573716Y-119657626D03*
D17*
X140493716Y-119657626D03*
D18*
X136683716Y-117117626D03*
X143033716Y-114577626D03*
D15*
X146783716Y-114577626D03*
%TD*%
%TO.C,MX14*%
X113883716Y-117117626D03*
D16*
X116363716Y-119657626D03*
X126523716Y-119657626D03*
D17*
X121443716Y-119657626D03*
D18*
X117633716Y-117117626D03*
X123983716Y-114577626D03*
D15*
X127733716Y-114577626D03*
%TD*%
%TO.C,MX13*%
X94833716Y-117117626D03*
D16*
X97313716Y-119657626D03*
X107473716Y-119657626D03*
D17*
X102393716Y-119657626D03*
D18*
X98583716Y-117117626D03*
X104933716Y-114577626D03*
D15*
X108683716Y-114577626D03*
%TD*%
%TO.C,MX12*%
X151983716Y-98067626D03*
D16*
X154463716Y-100607626D03*
X164623716Y-100607626D03*
D17*
X159543716Y-100607626D03*
D18*
X155733716Y-98067626D03*
X162083716Y-95527626D03*
D15*
X165833716Y-95527626D03*
%TD*%
%TO.C,MX11*%
X132933716Y-98067626D03*
D16*
X135413716Y-100607626D03*
X145573716Y-100607626D03*
D17*
X140493716Y-100607626D03*
D18*
X136683716Y-98067626D03*
X143033716Y-95527626D03*
D15*
X146783716Y-95527626D03*
%TD*%
%TO.C,MX10*%
X113883716Y-98067626D03*
D16*
X116363716Y-100607626D03*
X126523716Y-100607626D03*
D17*
X121443716Y-100607626D03*
D18*
X117633716Y-98067626D03*
X123983716Y-95527626D03*
D15*
X127733716Y-95527626D03*
%TD*%
%TO.C,MX9*%
X94833716Y-98067626D03*
D16*
X97313716Y-100607626D03*
X107473716Y-100607626D03*
D17*
X102393716Y-100607626D03*
D18*
X98583716Y-98067626D03*
X104933716Y-95527626D03*
D15*
X108683716Y-95527626D03*
%TD*%
%TO.C,MX8*%
X151983716Y-79017626D03*
D16*
X154463716Y-81557626D03*
X164623716Y-81557626D03*
D17*
X159543716Y-81557626D03*
D18*
X155733716Y-79017626D03*
X162083716Y-76477626D03*
D15*
X165833716Y-76477626D03*
%TD*%
%TO.C,MX7*%
X132933716Y-79017626D03*
D16*
X135413716Y-81557626D03*
X145573716Y-81557626D03*
D17*
X140493716Y-81557626D03*
D18*
X136683716Y-79017626D03*
X143033716Y-76477626D03*
D15*
X146783716Y-76477626D03*
%TD*%
%TO.C,MX6*%
X113883716Y-79017626D03*
D16*
X116363716Y-81557626D03*
X126523716Y-81557626D03*
D17*
X121443716Y-81557626D03*
D18*
X117633716Y-79017626D03*
X123983716Y-76477626D03*
D15*
X127733716Y-76477626D03*
%TD*%
%TO.C,MX5*%
X94833716Y-79017626D03*
D16*
X97313716Y-81557626D03*
X107473716Y-81557626D03*
D17*
X102393716Y-81557626D03*
D18*
X98583716Y-79017626D03*
X104933716Y-76477626D03*
D15*
X108683716Y-76477626D03*
%TD*%
%TO.C,MX3*%
X132933716Y-59967626D03*
D16*
X135413716Y-62507626D03*
X145573716Y-62507626D03*
D17*
X140493716Y-62507626D03*
D18*
X136683716Y-59967626D03*
X143033716Y-57427626D03*
D15*
X146783716Y-57427626D03*
%TD*%
%TO.C,MX2*%
X113883716Y-59967626D03*
D16*
X116363716Y-62507626D03*
X126523716Y-62507626D03*
D17*
X121443716Y-62507626D03*
D18*
X117633716Y-59967626D03*
X123983716Y-57427626D03*
D15*
X127733716Y-57427626D03*
%TD*%
%TO.C,MX1*%
X94833716Y-59967626D03*
D16*
X97313716Y-62507626D03*
X107473716Y-62507626D03*
D17*
X102393716Y-62507626D03*
D18*
X98583716Y-59967626D03*
X104933716Y-57427626D03*
D15*
X108683716Y-57427626D03*
%TD*%
D19*
%TO.C,H4*%
X167282672Y-132754576D03*
%TD*%
%TO.C,H3*%
X94654608Y-132754576D03*
%TD*%
%TO.C,H2*%
X167282672Y-30956224D03*
%TD*%
%TO.C,H1*%
X94654608Y-30956224D03*
%TD*%
D14*
%TO.C,D16*%
X167481216Y-118007626D03*
X167481216Y-121307626D03*
%TD*%
D20*
%TO.C,U1*%
X166369872Y-35242464D03*
X163829872Y-35242464D03*
X161289872Y-35242464D03*
X158749872Y-35242464D03*
X156209872Y-35242464D03*
X153669872Y-35242464D03*
X151129872Y-35242464D03*
X148589872Y-35242464D03*
X146049872Y-35242464D03*
X143509872Y-35242464D03*
X140969872Y-35242464D03*
X138429872Y-35242464D03*
X138429872Y-50482464D03*
X140969872Y-50482464D03*
X143509872Y-50482464D03*
X146049872Y-50482464D03*
X148589872Y-50482464D03*
X151129872Y-50482464D03*
X153669872Y-50482464D03*
X156209872Y-50482464D03*
X158749872Y-50482464D03*
X161289872Y-50482464D03*
X163829872Y-50482464D03*
D21*
X166369872Y-50482464D03*
%TD*%
D14*
%TO.C,D15*%
X148431216Y-118007626D03*
X148431216Y-121307626D03*
%TD*%
%TO.C,D14*%
X129381216Y-118007626D03*
X129381216Y-121307626D03*
%TD*%
%TO.C,D13*%
X110331216Y-118007626D03*
X110331216Y-121307626D03*
%TD*%
%TO.C,D12*%
X167481216Y-98895126D03*
X167481216Y-102195126D03*
%TD*%
%TO.C,D11*%
X148431216Y-98895126D03*
X148431216Y-102195126D03*
%TD*%
%TO.C,D10*%
X129381216Y-98957626D03*
X129381216Y-102257626D03*
%TD*%
%TO.C,D9*%
X110331216Y-98957626D03*
X110331216Y-102257626D03*
%TD*%
%TO.C,D8*%
X167481216Y-79907626D03*
X167481216Y-83207626D03*
%TD*%
%TO.C,D7*%
X148431216Y-79907626D03*
X148431216Y-83207626D03*
%TD*%
%TO.C,D6*%
X129381216Y-79907626D03*
X129381216Y-83207626D03*
%TD*%
%TO.C,D5*%
X110331216Y-79907626D03*
X110331216Y-83207626D03*
%TD*%
%TO.C,D4*%
X167481216Y-60857626D03*
X167481216Y-64157626D03*
%TD*%
%TO.C,D3*%
X148431216Y-60857626D03*
X148431216Y-64157626D03*
%TD*%
%TO.C,D2*%
X129381216Y-60857626D03*
X129381216Y-64157626D03*
%TD*%
%TO.C,D1*%
X110331216Y-60857626D03*
X110331216Y-64157626D03*
%TD*%
M02*
