%TF.GenerationSoftware,KiCad,Pcbnew,(5.1.10)-1*%
%TF.CreationDate,2021-05-20T03:36:14-05:00*%
%TF.ProjectId,smol-keypad,736d6f6c-2d6b-4657-9970-61642e6b6963,rev?*%
%TF.SameCoordinates,Original*%
%TF.FileFunction,Legend,Top*%
%TF.FilePolarity,Positive*%
%FSLAX46Y46*%
G04 Gerber Fmt 4.6, Leading zero omitted, Abs format (unit mm)*
G04 Created by KiCad (PCBNEW (5.1.10)-1) date 2021-05-20 03:36:14*
%MOMM*%
%LPD*%
G01*
G04 APERTURE LIST*
%ADD10C,0.120000*%
%ADD11C,0.150000*%
G04 APERTURE END LIST*
D10*
%TO.C,SW1*%
X105393664Y-42267152D02*
G75*
G03*
X105393664Y-42267152I-3000000J0D01*
G01*
X104393664Y-36367152D02*
X108493664Y-36367152D01*
X108493664Y-48167152D02*
X104393664Y-48167152D01*
X100393664Y-48167152D02*
X96293664Y-48167152D01*
X100393664Y-36367152D02*
X96293664Y-36367152D01*
X96293664Y-36367152D02*
X96293664Y-48167152D01*
X94893664Y-38467152D02*
X94593664Y-38167152D01*
X94593664Y-38167152D02*
X95193664Y-38167152D01*
X95193664Y-38167152D02*
X94893664Y-38467152D01*
X108493664Y-36367152D02*
X108493664Y-38767152D01*
X108493664Y-40967152D02*
X108493664Y-43567152D01*
X108493664Y-45767152D02*
X108493664Y-48167152D01*
X102393664Y-41767152D02*
X102393664Y-42767152D01*
X101893664Y-42267152D02*
X102893664Y-42267152D01*
D11*
%TO.C,MX4*%
X152543716Y-56507626D02*
X152543716Y-55507626D01*
X152543716Y-69507626D02*
X153543716Y-69507626D01*
X153543716Y-55507626D02*
X152543716Y-55507626D01*
X152543716Y-69507626D02*
X152543716Y-68507626D01*
X166543716Y-68507626D02*
X166543716Y-69507626D01*
X166543716Y-55507626D02*
X165543716Y-55507626D01*
X165543716Y-69507626D02*
X166543716Y-69507626D01*
X166543716Y-55507626D02*
X166543716Y-56507626D01*
%TO.C,MX16*%
X152543716Y-113657626D02*
X152543716Y-112657626D01*
X152543716Y-126657626D02*
X153543716Y-126657626D01*
X153543716Y-112657626D02*
X152543716Y-112657626D01*
X152543716Y-126657626D02*
X152543716Y-125657626D01*
X166543716Y-125657626D02*
X166543716Y-126657626D01*
X166543716Y-112657626D02*
X165543716Y-112657626D01*
X165543716Y-126657626D02*
X166543716Y-126657626D01*
X166543716Y-112657626D02*
X166543716Y-113657626D01*
%TO.C,MX15*%
X133493716Y-113657626D02*
X133493716Y-112657626D01*
X133493716Y-126657626D02*
X134493716Y-126657626D01*
X134493716Y-112657626D02*
X133493716Y-112657626D01*
X133493716Y-126657626D02*
X133493716Y-125657626D01*
X147493716Y-125657626D02*
X147493716Y-126657626D01*
X147493716Y-112657626D02*
X146493716Y-112657626D01*
X146493716Y-126657626D02*
X147493716Y-126657626D01*
X147493716Y-112657626D02*
X147493716Y-113657626D01*
%TO.C,MX14*%
X114443716Y-113657626D02*
X114443716Y-112657626D01*
X114443716Y-126657626D02*
X115443716Y-126657626D01*
X115443716Y-112657626D02*
X114443716Y-112657626D01*
X114443716Y-126657626D02*
X114443716Y-125657626D01*
X128443716Y-125657626D02*
X128443716Y-126657626D01*
X128443716Y-112657626D02*
X127443716Y-112657626D01*
X127443716Y-126657626D02*
X128443716Y-126657626D01*
X128443716Y-112657626D02*
X128443716Y-113657626D01*
%TO.C,MX13*%
X95393716Y-113657626D02*
X95393716Y-112657626D01*
X95393716Y-126657626D02*
X96393716Y-126657626D01*
X96393716Y-112657626D02*
X95393716Y-112657626D01*
X95393716Y-126657626D02*
X95393716Y-125657626D01*
X109393716Y-125657626D02*
X109393716Y-126657626D01*
X109393716Y-112657626D02*
X108393716Y-112657626D01*
X108393716Y-126657626D02*
X109393716Y-126657626D01*
X109393716Y-112657626D02*
X109393716Y-113657626D01*
%TO.C,MX12*%
X152543716Y-94607626D02*
X152543716Y-93607626D01*
X152543716Y-107607626D02*
X153543716Y-107607626D01*
X153543716Y-93607626D02*
X152543716Y-93607626D01*
X152543716Y-107607626D02*
X152543716Y-106607626D01*
X166543716Y-106607626D02*
X166543716Y-107607626D01*
X166543716Y-93607626D02*
X165543716Y-93607626D01*
X165543716Y-107607626D02*
X166543716Y-107607626D01*
X166543716Y-93607626D02*
X166543716Y-94607626D01*
%TO.C,MX11*%
X133493716Y-94607626D02*
X133493716Y-93607626D01*
X133493716Y-107607626D02*
X134493716Y-107607626D01*
X134493716Y-93607626D02*
X133493716Y-93607626D01*
X133493716Y-107607626D02*
X133493716Y-106607626D01*
X147493716Y-106607626D02*
X147493716Y-107607626D01*
X147493716Y-93607626D02*
X146493716Y-93607626D01*
X146493716Y-107607626D02*
X147493716Y-107607626D01*
X147493716Y-93607626D02*
X147493716Y-94607626D01*
%TO.C,MX10*%
X114443716Y-94607626D02*
X114443716Y-93607626D01*
X114443716Y-107607626D02*
X115443716Y-107607626D01*
X115443716Y-93607626D02*
X114443716Y-93607626D01*
X114443716Y-107607626D02*
X114443716Y-106607626D01*
X128443716Y-106607626D02*
X128443716Y-107607626D01*
X128443716Y-93607626D02*
X127443716Y-93607626D01*
X127443716Y-107607626D02*
X128443716Y-107607626D01*
X128443716Y-93607626D02*
X128443716Y-94607626D01*
%TO.C,MX9*%
X95393716Y-94607626D02*
X95393716Y-93607626D01*
X95393716Y-107607626D02*
X96393716Y-107607626D01*
X96393716Y-93607626D02*
X95393716Y-93607626D01*
X95393716Y-107607626D02*
X95393716Y-106607626D01*
X109393716Y-106607626D02*
X109393716Y-107607626D01*
X109393716Y-93607626D02*
X108393716Y-93607626D01*
X108393716Y-107607626D02*
X109393716Y-107607626D01*
X109393716Y-93607626D02*
X109393716Y-94607626D01*
%TO.C,MX8*%
X152543716Y-75557626D02*
X152543716Y-74557626D01*
X152543716Y-88557626D02*
X153543716Y-88557626D01*
X153543716Y-74557626D02*
X152543716Y-74557626D01*
X152543716Y-88557626D02*
X152543716Y-87557626D01*
X166543716Y-87557626D02*
X166543716Y-88557626D01*
X166543716Y-74557626D02*
X165543716Y-74557626D01*
X165543716Y-88557626D02*
X166543716Y-88557626D01*
X166543716Y-74557626D02*
X166543716Y-75557626D01*
%TO.C,MX7*%
X133493716Y-75557626D02*
X133493716Y-74557626D01*
X133493716Y-88557626D02*
X134493716Y-88557626D01*
X134493716Y-74557626D02*
X133493716Y-74557626D01*
X133493716Y-88557626D02*
X133493716Y-87557626D01*
X147493716Y-87557626D02*
X147493716Y-88557626D01*
X147493716Y-74557626D02*
X146493716Y-74557626D01*
X146493716Y-88557626D02*
X147493716Y-88557626D01*
X147493716Y-74557626D02*
X147493716Y-75557626D01*
%TO.C,MX6*%
X114443716Y-75557626D02*
X114443716Y-74557626D01*
X114443716Y-88557626D02*
X115443716Y-88557626D01*
X115443716Y-74557626D02*
X114443716Y-74557626D01*
X114443716Y-88557626D02*
X114443716Y-87557626D01*
X128443716Y-87557626D02*
X128443716Y-88557626D01*
X128443716Y-74557626D02*
X127443716Y-74557626D01*
X127443716Y-88557626D02*
X128443716Y-88557626D01*
X128443716Y-74557626D02*
X128443716Y-75557626D01*
%TO.C,MX5*%
X95393716Y-75557626D02*
X95393716Y-74557626D01*
X95393716Y-88557626D02*
X96393716Y-88557626D01*
X96393716Y-74557626D02*
X95393716Y-74557626D01*
X95393716Y-88557626D02*
X95393716Y-87557626D01*
X109393716Y-87557626D02*
X109393716Y-88557626D01*
X109393716Y-74557626D02*
X108393716Y-74557626D01*
X108393716Y-88557626D02*
X109393716Y-88557626D01*
X109393716Y-74557626D02*
X109393716Y-75557626D01*
%TO.C,MX3*%
X133493716Y-56507626D02*
X133493716Y-55507626D01*
X133493716Y-69507626D02*
X134493716Y-69507626D01*
X134493716Y-55507626D02*
X133493716Y-55507626D01*
X133493716Y-69507626D02*
X133493716Y-68507626D01*
X147493716Y-68507626D02*
X147493716Y-69507626D01*
X147493716Y-55507626D02*
X146493716Y-55507626D01*
X146493716Y-69507626D02*
X147493716Y-69507626D01*
X147493716Y-55507626D02*
X147493716Y-56507626D01*
%TO.C,MX2*%
X114443716Y-56507626D02*
X114443716Y-55507626D01*
X114443716Y-69507626D02*
X115443716Y-69507626D01*
X115443716Y-55507626D02*
X114443716Y-55507626D01*
X114443716Y-69507626D02*
X114443716Y-68507626D01*
X128443716Y-68507626D02*
X128443716Y-69507626D01*
X128443716Y-55507626D02*
X127443716Y-55507626D01*
X127443716Y-69507626D02*
X128443716Y-69507626D01*
X128443716Y-55507626D02*
X128443716Y-56507626D01*
%TO.C,MX1*%
X95393716Y-56507626D02*
X95393716Y-55507626D01*
X95393716Y-69507626D02*
X96393716Y-69507626D01*
X96393716Y-55507626D02*
X95393716Y-55507626D01*
X95393716Y-69507626D02*
X95393716Y-68507626D01*
X109393716Y-68507626D02*
X109393716Y-69507626D01*
X109393716Y-55507626D02*
X108393716Y-55507626D01*
X108393716Y-69507626D02*
X109393716Y-69507626D01*
X109393716Y-55507626D02*
X109393716Y-56507626D01*
%TO.C,U1*%
X137159872Y-33972464D02*
X137159872Y-51752464D01*
X137159872Y-51752464D02*
X167639872Y-51752464D01*
X167639872Y-51752464D02*
X167639872Y-46672464D01*
X167639872Y-46672464D02*
X170179872Y-46672464D01*
X170179872Y-46672464D02*
X170179872Y-39052464D01*
X170179872Y-39052464D02*
X167639872Y-39052464D01*
X167639872Y-39052464D02*
X167639872Y-33972464D01*
X167639872Y-33972464D02*
X137159872Y-33972464D01*
%TO.C,OL1*%
X120064780Y-44314844D02*
X120064780Y-44124368D01*
X120112400Y-44029130D01*
X120207638Y-43933892D01*
X120398114Y-43886273D01*
X120731447Y-43886273D01*
X120921923Y-43933892D01*
X121017161Y-44029130D01*
X121064780Y-44124368D01*
X121064780Y-44314844D01*
X121017161Y-44410083D01*
X120921923Y-44505321D01*
X120731447Y-44552940D01*
X120398114Y-44552940D01*
X120207638Y-44505321D01*
X120112400Y-44410083D01*
X120064780Y-44314844D01*
X121064780Y-42981511D02*
X121064780Y-43457702D01*
X120064780Y-43457702D01*
X120540971Y-42648178D02*
X120540971Y-42314844D01*
X121064780Y-42171987D02*
X121064780Y-42648178D01*
X120064780Y-42648178D01*
X120064780Y-42171987D01*
X121064780Y-41743416D02*
X120064780Y-41743416D01*
X120064780Y-41505321D01*
X120112400Y-41362464D01*
X120207638Y-41267225D01*
X120302876Y-41219606D01*
X120493352Y-41171987D01*
X120636209Y-41171987D01*
X120826685Y-41219606D01*
X120921923Y-41267225D01*
X121017161Y-41362464D01*
X121064780Y-41505321D01*
X121064780Y-41743416D01*
%TO.C,H4*%
X166520767Y-130006956D02*
X166520767Y-129006956D01*
X166520767Y-129483147D02*
X167092195Y-129483147D01*
X167092195Y-130006956D02*
X167092195Y-129006956D01*
X167996957Y-129340290D02*
X167996957Y-130006956D01*
X167758862Y-128959337D02*
X167520767Y-129673623D01*
X168139814Y-129673623D01*
%TO.C,H3*%
X93892703Y-130006956D02*
X93892703Y-129006956D01*
X93892703Y-129483147D02*
X94464131Y-129483147D01*
X94464131Y-130006956D02*
X94464131Y-129006956D01*
X94845084Y-129006956D02*
X95464131Y-129006956D01*
X95130798Y-129387909D01*
X95273655Y-129387909D01*
X95368893Y-129435528D01*
X95416512Y-129483147D01*
X95464131Y-129578385D01*
X95464131Y-129816480D01*
X95416512Y-129911718D01*
X95368893Y-129959337D01*
X95273655Y-130006956D01*
X94987941Y-130006956D01*
X94892703Y-129959337D01*
X94845084Y-129911718D01*
%TO.C,H2*%
X166520767Y-28208604D02*
X166520767Y-27208604D01*
X166520767Y-27684795D02*
X167092195Y-27684795D01*
X167092195Y-28208604D02*
X167092195Y-27208604D01*
X167520767Y-27303843D02*
X167568386Y-27256224D01*
X167663624Y-27208604D01*
X167901719Y-27208604D01*
X167996957Y-27256224D01*
X168044576Y-27303843D01*
X168092195Y-27399081D01*
X168092195Y-27494319D01*
X168044576Y-27637176D01*
X167473148Y-28208604D01*
X168092195Y-28208604D01*
%TO.C,H1*%
X93892703Y-28208604D02*
X93892703Y-27208604D01*
X93892703Y-27684795D02*
X94464131Y-27684795D01*
X94464131Y-28208604D02*
X94464131Y-27208604D01*
X95464131Y-28208604D02*
X94892703Y-28208604D01*
X95178417Y-28208604D02*
X95178417Y-27208604D01*
X95083179Y-27351462D01*
X94987941Y-27446700D01*
X94892703Y-27494319D01*
%TD*%
M02*
