%TF.GenerationSoftware,KiCad,Pcbnew,(5.1.10)-1*%
%TF.CreationDate,2021-05-19T15:55:05-05:00*%
%TF.ProjectId,smol-keypad,736d6f6c-2d6b-4657-9970-61642e6b6963,rev?*%
%TF.SameCoordinates,Original*%
%TF.FileFunction,Copper,L1,Top*%
%TF.FilePolarity,Positive*%
%FSLAX46Y46*%
G04 Gerber Fmt 4.6, Leading zero omitted, Abs format (unit mm)*
G04 Created by KiCad (PCBNEW (5.1.10)-1) date 2021-05-19 15:55:05*
%MOMM*%
%LPD*%
G01*
G04 APERTURE LIST*
%TA.AperFunction,ComponentPad*%
%ADD10C,1.600000*%
%TD*%
%TA.AperFunction,ComponentPad*%
%ADD11R,1.600000X1.600000*%
%TD*%
%TA.AperFunction,ComponentPad*%
%ADD12C,2.250000*%
%TD*%
%TA.AperFunction,Conductor*%
%ADD13C,0.250000*%
%TD*%
G04 APERTURE END LIST*
D10*
%TO.P,U1,24*%
%TO.N,Net-(U1-Pad24)*%
X156051250Y-34448750D03*
%TO.P,U1,23*%
%TO.N,GND*%
X153511250Y-34448750D03*
%TO.P,U1,22*%
%TO.N,Net-(SW1-Pad1)*%
X150971250Y-34448750D03*
%TO.P,U1,21*%
%TO.N,Net-(U1-Pad21)*%
X148431250Y-34448750D03*
%TO.P,U1,20*%
%TO.N,Net-(U1-Pad20)*%
X145891250Y-34448750D03*
%TO.P,U1,19*%
%TO.N,Net-(U1-Pad19)*%
X143351250Y-34448750D03*
%TO.P,U1,18*%
%TO.N,Net-(U1-Pad18)*%
X140811250Y-34448750D03*
%TO.P,U1,17*%
%TO.N,Net-(U1-Pad17)*%
X138271250Y-34448750D03*
%TO.P,U1,16*%
%TO.N,Net-(U1-Pad16)*%
X135731250Y-34448750D03*
%TO.P,U1,15*%
%TO.N,Net-(U1-Pad15)*%
X133191250Y-34448750D03*
%TO.P,U1,14*%
%TO.N,Net-(U1-Pad14)*%
X130651250Y-34448750D03*
%TO.P,U1,13*%
%TO.N,Net-(U1-Pad13)*%
X128111250Y-34448750D03*
%TO.P,U1,12*%
%TO.N,/row3*%
X128111250Y-49688750D03*
%TO.P,U1,11*%
%TO.N,/row2*%
X130651250Y-49688750D03*
%TO.P,U1,10*%
%TO.N,/row1*%
X133191250Y-49688750D03*
%TO.P,U1,9*%
%TO.N,/row0*%
X135731250Y-49688750D03*
%TO.P,U1,8*%
%TO.N,/col0*%
X138271250Y-49688750D03*
%TO.P,U1,7*%
%TO.N,/col1*%
X140811250Y-49688750D03*
%TO.P,U1,6*%
%TO.N,/col2*%
X143351250Y-49688750D03*
%TO.P,U1,5*%
%TO.N,/col3*%
X145891250Y-49688750D03*
%TO.P,U1,4*%
%TO.N,Net-(U1-Pad4)*%
X148431250Y-49688750D03*
%TO.P,U1,3*%
%TO.N,Net-(U1-Pad3)*%
X150971250Y-49688750D03*
%TO.P,U1,2*%
%TO.N,Net-(U1-Pad2)*%
X153511250Y-49688750D03*
D11*
%TO.P,U1,1*%
%TO.N,Net-(U1-Pad1)*%
X156051250Y-49688750D03*
%TD*%
D12*
%TO.P,MX16,2*%
%TO.N,Net-(D16-Pad2)*%
X107473750Y-121602500D03*
%TO.P,MX16,1*%
%TO.N,/col3*%
X104933750Y-115252500D03*
%TD*%
%TO.P,MX15,2*%
%TO.N,Net-(D15-Pad2)*%
X107473750Y-102552500D03*
%TO.P,MX15,1*%
%TO.N,/col2*%
X104933750Y-96202500D03*
%TD*%
%TO.P,MX14,2*%
%TO.N,Net-(D14-Pad2)*%
X107473750Y-83502500D03*
%TO.P,MX14,1*%
%TO.N,/col1*%
X104933750Y-77152500D03*
%TD*%
%TO.P,MX13,2*%
%TO.N,Net-(D13-Pad2)*%
X107473750Y-64452500D03*
%TO.P,MX13,1*%
%TO.N,/col0*%
X104933750Y-58102500D03*
%TD*%
%TO.P,MX12,2*%
%TO.N,Net-(D12-Pad2)*%
X126523750Y-121602500D03*
%TO.P,MX12,1*%
%TO.N,/col3*%
X123983750Y-115252500D03*
%TD*%
%TO.P,MX11,2*%
%TO.N,Net-(D11-Pad2)*%
X126523750Y-102552500D03*
%TO.P,MX11,1*%
%TO.N,/col2*%
X123983750Y-96202500D03*
%TD*%
%TO.P,MX10,2*%
%TO.N,Net-(D10-Pad2)*%
X126523750Y-83502500D03*
%TO.P,MX10,1*%
%TO.N,/col1*%
X123983750Y-77152500D03*
%TD*%
%TO.P,MX9,2*%
%TO.N,Net-(D9-Pad2)*%
X126523750Y-64452500D03*
%TO.P,MX9,1*%
%TO.N,/col0*%
X123983750Y-58102500D03*
%TD*%
%TO.P,MX8,2*%
%TO.N,Net-(D8-Pad2)*%
X145573750Y-121602500D03*
%TO.P,MX8,1*%
%TO.N,/col3*%
X143033750Y-115252500D03*
%TD*%
%TO.P,MX7,2*%
%TO.N,Net-(D7-Pad2)*%
X145573750Y-102552500D03*
%TO.P,MX7,1*%
%TO.N,/col2*%
X143033750Y-96202500D03*
%TD*%
%TO.P,MX6,2*%
%TO.N,Net-(D6-Pad2)*%
X145573750Y-83502500D03*
%TO.P,MX6,1*%
%TO.N,/col1*%
X143033750Y-77152500D03*
%TD*%
%TO.P,MX5,2*%
%TO.N,Net-(D5-Pad2)*%
X145573750Y-64452500D03*
%TO.P,MX5,1*%
%TO.N,/col0*%
X143033750Y-58102500D03*
%TD*%
%TO.P,MX4,2*%
%TO.N,Net-(D4-Pad2)*%
X164623750Y-121602500D03*
%TO.P,MX4,1*%
%TO.N,/col3*%
X162083750Y-115252500D03*
%TD*%
%TO.P,MX3,2*%
%TO.N,Net-(D3-Pad2)*%
X164623750Y-102552500D03*
%TO.P,MX3,1*%
%TO.N,/col2*%
X162083750Y-96202500D03*
%TD*%
%TO.P,MX2,2*%
%TO.N,Net-(D2-Pad2)*%
X164623750Y-83502500D03*
%TO.P,MX2,1*%
%TO.N,/col1*%
X162083750Y-77152500D03*
%TD*%
%TO.P,MX1,2*%
%TO.N,Net-(D1-Pad2)*%
X164623750Y-64452500D03*
%TO.P,MX1,1*%
%TO.N,/col0*%
X162083750Y-58102500D03*
%TD*%
D13*
%TO.N,/col0*%
X162083750Y-58102500D02*
X143033750Y-58102500D01*
X143033750Y-58102500D02*
X104933750Y-58102500D01*
X162083750Y-56511510D02*
X161134740Y-55562500D01*
X162083750Y-58102500D02*
X162083750Y-56511510D01*
X144145000Y-55562500D02*
X138271250Y-49688750D01*
X161134740Y-55562500D02*
X144145000Y-55562500D01*
%TO.N,/col1*%
X162083750Y-77152500D02*
X104933750Y-77152500D01*
X163533751Y-57325101D02*
X160977400Y-54768750D01*
X163533751Y-58798501D02*
X163533751Y-57325101D01*
X162083750Y-60248502D02*
X163533751Y-58798501D01*
X162083750Y-77152500D02*
X162083750Y-60248502D01*
X145891250Y-54768750D02*
X140811250Y-49688750D01*
X160977400Y-54768750D02*
X145891250Y-54768750D01*
%TO.N,/col2*%
X162083750Y-96202500D02*
X104933750Y-96202500D01*
X166073751Y-59228691D02*
X160820060Y-53975000D01*
X166073751Y-92212499D02*
X166073751Y-59228691D01*
X162083750Y-96202500D02*
X166073751Y-92212499D01*
X147637500Y-53975000D02*
X143351250Y-49688750D01*
X160820060Y-53975000D02*
X147637500Y-53975000D01*
%TO.N,/col3*%
X162083750Y-115252500D02*
X104933750Y-115252500D01*
X166523760Y-59042290D02*
X160662720Y-53181250D01*
X166523760Y-110812490D02*
X166523760Y-59042290D01*
X162083750Y-115252500D02*
X166523760Y-110812490D01*
X149383750Y-53181250D02*
X145891250Y-49688750D01*
X160662720Y-53181250D02*
X149383750Y-53181250D01*
%TD*%
M02*
