M48
; DRILL file {KiCad (5.1.10)-1} date 05/19/21 15:55:06
; FORMAT={-:-/ absolute / inch / decimal}
; #@! TF.CreationDate,2021-05-19T15:55:06-05:00
; #@! TF.GenerationSoftware,Kicad,Pcbnew,(5.1.10)-1
; #@! TF.FileFunction,NonPlated,1,2,NPTH
FMAT,2
INCH
T1C0.0689
T2C0.0866
T3C0.1570
%
G90
G05
T1
X4.0312Y-2.2375
X4.0312Y-2.6375
X4.0312Y-2.9875
X4.0312Y-3.3875
X4.0312Y-3.7375
X4.0312Y-4.1375
X4.0312Y-4.4875
X4.0312Y-4.8875
X4.7812Y-2.2375
X4.7812Y-2.6375
X4.7812Y-2.9875
X4.7812Y-3.3875
X4.7812Y-3.7375
X4.7812Y-4.1375
X4.7812Y-4.4875
X4.7812Y-4.8875
X5.5312Y-2.2375
X5.5312Y-2.6375
X5.5312Y-2.9875
X5.5312Y-3.3875
X5.5312Y-3.7375
X5.5312Y-4.1375
X5.5312Y-4.4875
X5.5312Y-4.8875
X6.2812Y-2.2375
X6.2812Y-2.6375
X6.2812Y-2.9875
X6.2812Y-3.3875
X6.2812Y-3.7375
X6.2812Y-4.1375
X6.2812Y-4.4875
X6.2812Y-4.8875
T2
X3.7031Y-1.1953
X3.7031Y-5.2266
X6.6094Y-1.1953
X6.6094Y-5.2266
T3
X4.0312Y-2.4375
X4.0312Y-3.1875
X4.0312Y-3.9375
X4.0312Y-4.6875
X4.7812Y-2.4375
X4.7812Y-3.1875
X4.7812Y-3.9375
X4.7812Y-4.6875
X5.5312Y-2.4375
X5.5312Y-3.1875
X5.5312Y-3.9375
X5.5312Y-4.6875
X6.2812Y-2.4375
X6.2812Y-3.1875
X6.2812Y-3.9375
X6.2812Y-4.6875
T0
M30
