%TF.GenerationSoftware,KiCad,Pcbnew,(5.1.10)-1*%
%TF.CreationDate,2021-05-20T03:36:14-05:00*%
%TF.ProjectId,smol-keypad,736d6f6c-2d6b-4657-9970-61642e6b6963,rev?*%
%TF.SameCoordinates,Original*%
%TF.FileFunction,Paste,Bot*%
%TF.FilePolarity,Positive*%
%FSLAX46Y46*%
G04 Gerber Fmt 4.6, Leading zero omitted, Abs format (unit mm)*
G04 Created by KiCad (PCBNEW (5.1.10)-1) date 2021-05-20 03:36:14*
%MOMM*%
%LPD*%
G01*
G04 APERTURE LIST*
%ADD10R,1.200000X0.900000*%
%ADD11R,2.550000X2.500000*%
G04 APERTURE END LIST*
D10*
%TO.C,D17*%
X106560848Y-46570272D03*
X106560848Y-49870272D03*
%TD*%
D11*
%TO.C,MX4*%
X165833716Y-57427626D03*
X151983716Y-59967626D03*
%TD*%
%TO.C,MX16*%
X165833716Y-114577626D03*
X151983716Y-117117626D03*
%TD*%
%TO.C,MX15*%
X146783716Y-114577626D03*
X132933716Y-117117626D03*
%TD*%
%TO.C,MX14*%
X127733716Y-114577626D03*
X113883716Y-117117626D03*
%TD*%
%TO.C,MX13*%
X108683716Y-114577626D03*
X94833716Y-117117626D03*
%TD*%
%TO.C,MX12*%
X165833716Y-95527626D03*
X151983716Y-98067626D03*
%TD*%
%TO.C,MX11*%
X146783716Y-95527626D03*
X132933716Y-98067626D03*
%TD*%
%TO.C,MX10*%
X127733716Y-95527626D03*
X113883716Y-98067626D03*
%TD*%
%TO.C,MX9*%
X108683716Y-95527626D03*
X94833716Y-98067626D03*
%TD*%
%TO.C,MX8*%
X165833716Y-76477626D03*
X151983716Y-79017626D03*
%TD*%
%TO.C,MX7*%
X146783716Y-76477626D03*
X132933716Y-79017626D03*
%TD*%
%TO.C,MX6*%
X127733716Y-76477626D03*
X113883716Y-79017626D03*
%TD*%
%TO.C,MX5*%
X108683716Y-76477626D03*
X94833716Y-79017626D03*
%TD*%
%TO.C,MX3*%
X146783716Y-57427626D03*
X132933716Y-59967626D03*
%TD*%
%TO.C,MX2*%
X127733716Y-57427626D03*
X113883716Y-59967626D03*
%TD*%
%TO.C,MX1*%
X108683716Y-57427626D03*
X94833716Y-59967626D03*
%TD*%
D10*
%TO.C,D16*%
X167481216Y-118007626D03*
X167481216Y-121307626D03*
%TD*%
%TO.C,D15*%
X148431216Y-118007626D03*
X148431216Y-121307626D03*
%TD*%
%TO.C,D14*%
X129381216Y-118007626D03*
X129381216Y-121307626D03*
%TD*%
%TO.C,D13*%
X110331216Y-118007626D03*
X110331216Y-121307626D03*
%TD*%
%TO.C,D12*%
X167481216Y-98895126D03*
X167481216Y-102195126D03*
%TD*%
%TO.C,D11*%
X148431216Y-98895126D03*
X148431216Y-102195126D03*
%TD*%
%TO.C,D10*%
X129381216Y-98957626D03*
X129381216Y-102257626D03*
%TD*%
%TO.C,D9*%
X110331216Y-98957626D03*
X110331216Y-102257626D03*
%TD*%
%TO.C,D8*%
X167481216Y-79907626D03*
X167481216Y-83207626D03*
%TD*%
%TO.C,D7*%
X148431216Y-79907626D03*
X148431216Y-83207626D03*
%TD*%
%TO.C,D6*%
X129381216Y-79907626D03*
X129381216Y-83207626D03*
%TD*%
%TO.C,D5*%
X110331216Y-79907626D03*
X110331216Y-83207626D03*
%TD*%
%TO.C,D4*%
X167481216Y-60857626D03*
X167481216Y-64157626D03*
%TD*%
%TO.C,D3*%
X148431216Y-60857626D03*
X148431216Y-64157626D03*
%TD*%
%TO.C,D2*%
X129381216Y-60857626D03*
X129381216Y-64157626D03*
%TD*%
%TO.C,D1*%
X110331216Y-60857626D03*
X110331216Y-64157626D03*
%TD*%
M02*
