M48
; DRILL file {KiCad (5.1.10)-1} date 05/20/21 03:36:15
; FORMAT={-:-/ absolute / inch / decimal}
; #@! TF.CreationDate,2021-05-20T03:36:15-05:00
; #@! TF.GenerationSoftware,Kicad,Pcbnew,(5.1.10)-1
; #@! TF.FileFunction,Plated,1,2,PTH
FMAT,2
INCH
T1C0.0157
T2C0.0320
T3C0.0394
T4C0.0433
T5C0.0866
%
G90
G05
T1
X4.2656Y-2.3437
X4.2656Y-2.8828
X4.2656Y-3.0937
X4.2656Y-3.6328
X4.2656Y-3.8437
X4.2656Y-4.3828
X4.4531Y-2.5078
X4.4531Y-3.2344
X4.4531Y-3.9844
X4.4531Y-4.7109
X4.5937Y-2.0156
X5.0156Y-2.3437
X5.0156Y-2.8828
X5.0156Y-3.0937
X5.0156Y-3.6328
X5.0156Y-3.8437
X5.0156Y-4.3828
X5.7656Y-2.3437
X5.7656Y-2.8828
X5.7656Y-3.0937
X5.7656Y-3.6328
X5.7656Y-3.8437
X5.7656Y-4.3828
X6.5156Y-2.3437
X6.5156Y-2.8828
X6.5156Y-3.0937
X6.5156Y-3.6328
X6.5156Y-3.8437
X6.5156Y-4.3828
T2
X4.6875Y-1.5375
X4.6875Y-1.6375
X4.6875Y-1.7375
X4.6875Y-1.8375
T3
X3.736Y-1.5656
X3.736Y-1.6641
X3.736Y-1.7625
X4.3068Y-1.5656
X4.3068Y-1.7625
T4
X5.45Y-1.3875
X5.45Y-1.9875
X5.55Y-1.3875
X5.55Y-1.9875
X5.65Y-1.3875
X5.65Y-1.9875
X5.75Y-1.3875
X5.75Y-1.9875
X5.85Y-1.3875
X5.85Y-1.9875
X5.95Y-1.3875
X5.95Y-1.9875
X6.05Y-1.3875
X6.05Y-1.9875
X6.15Y-1.3875
X6.15Y-1.9875
X6.25Y-1.3875
X6.25Y-1.9875
X6.35Y-1.3875
X6.35Y-1.9875
X6.45Y-1.3875
X6.45Y-1.9875
X6.55Y-1.3875
X6.55Y-1.9875
T5
X3.7266Y-1.2187
X3.7266Y-5.2266
X6.5859Y-1.2187
X6.5859Y-5.2266
T0
M30
