%TF.GenerationSoftware,KiCad,Pcbnew,(5.1.10)-1*%
%TF.CreationDate,2021-05-19T15:55:05-05:00*%
%TF.ProjectId,smol-keypad,736d6f6c-2d6b-4657-9970-61642e6b6963,rev?*%
%TF.SameCoordinates,Original*%
%TF.FileFunction,Soldermask,Bot*%
%TF.FilePolarity,Negative*%
%FSLAX46Y46*%
G04 Gerber Fmt 4.6, Leading zero omitted, Abs format (unit mm)*
G04 Created by KiCad (PCBNEW (5.1.10)-1) date 2021-05-19 15:55:05*
%MOMM*%
%LPD*%
G01*
G04 APERTURE LIST*
%ADD10C,2.200000*%
%ADD11R,0.900000X1.200000*%
%ADD12C,1.600000*%
%ADD13R,1.600000X1.600000*%
%ADD14R,1.700000X1.000000*%
%ADD15C,2.250000*%
%ADD16C,3.987800*%
%ADD17C,1.750000*%
G04 APERTURE END LIST*
D10*
%TO.C,H4*%
X167877984Y-132754576D03*
%TD*%
%TO.C,H3*%
X94059296Y-132754576D03*
%TD*%
%TO.C,H2*%
X167877984Y-30360912D03*
%TD*%
%TO.C,H1*%
X94059296Y-30360912D03*
%TD*%
D11*
%TO.C,D16*%
X104043750Y-127000000D03*
X100743750Y-127000000D03*
%TD*%
D12*
%TO.C,U1*%
X156051250Y-34448750D03*
X153511250Y-34448750D03*
X150971250Y-34448750D03*
X148431250Y-34448750D03*
X145891250Y-34448750D03*
X143351250Y-34448750D03*
X140811250Y-34448750D03*
X138271250Y-34448750D03*
X135731250Y-34448750D03*
X133191250Y-34448750D03*
X130651250Y-34448750D03*
X128111250Y-34448750D03*
X128111250Y-49688750D03*
X130651250Y-49688750D03*
X133191250Y-49688750D03*
X135731250Y-49688750D03*
X138271250Y-49688750D03*
X140811250Y-49688750D03*
X143351250Y-49688750D03*
X145891250Y-49688750D03*
X148431250Y-49688750D03*
X150971250Y-49688750D03*
X153511250Y-49688750D03*
D13*
X156051250Y-49688750D03*
%TD*%
D14*
%TO.C,SW1*%
X116706250Y-43968750D03*
X123006250Y-43968750D03*
X116706250Y-40168750D03*
X123006250Y-40168750D03*
%TD*%
D15*
%TO.C,MX16*%
X107473750Y-121602500D03*
D16*
X102393750Y-119062500D03*
D15*
X104933750Y-115252500D03*
D17*
X102393750Y-113982500D03*
X102393750Y-124142500D03*
%TD*%
D15*
%TO.C,MX15*%
X107473750Y-102552500D03*
D16*
X102393750Y-100012500D03*
D15*
X104933750Y-96202500D03*
D17*
X102393750Y-94932500D03*
X102393750Y-105092500D03*
%TD*%
D15*
%TO.C,MX14*%
X107473750Y-83502500D03*
D16*
X102393750Y-80962500D03*
D15*
X104933750Y-77152500D03*
D17*
X102393750Y-75882500D03*
X102393750Y-86042500D03*
%TD*%
D15*
%TO.C,MX13*%
X107473750Y-64452500D03*
D16*
X102393750Y-61912500D03*
D15*
X104933750Y-58102500D03*
D17*
X102393750Y-56832500D03*
X102393750Y-66992500D03*
%TD*%
D15*
%TO.C,MX12*%
X126523750Y-121602500D03*
D16*
X121443750Y-119062500D03*
D15*
X123983750Y-115252500D03*
D17*
X121443750Y-113982500D03*
X121443750Y-124142500D03*
%TD*%
D15*
%TO.C,MX11*%
X126523750Y-102552500D03*
D16*
X121443750Y-100012500D03*
D15*
X123983750Y-96202500D03*
D17*
X121443750Y-94932500D03*
X121443750Y-105092500D03*
%TD*%
D15*
%TO.C,MX10*%
X126523750Y-83502500D03*
D16*
X121443750Y-80962500D03*
D15*
X123983750Y-77152500D03*
D17*
X121443750Y-75882500D03*
X121443750Y-86042500D03*
%TD*%
D15*
%TO.C,MX9*%
X126523750Y-64452500D03*
D16*
X121443750Y-61912500D03*
D15*
X123983750Y-58102500D03*
D17*
X121443750Y-56832500D03*
X121443750Y-66992500D03*
%TD*%
D15*
%TO.C,MX8*%
X145573750Y-121602500D03*
D16*
X140493750Y-119062500D03*
D15*
X143033750Y-115252500D03*
D17*
X140493750Y-113982500D03*
X140493750Y-124142500D03*
%TD*%
D15*
%TO.C,MX7*%
X145573750Y-102552500D03*
D16*
X140493750Y-100012500D03*
D15*
X143033750Y-96202500D03*
D17*
X140493750Y-94932500D03*
X140493750Y-105092500D03*
%TD*%
D15*
%TO.C,MX6*%
X145573750Y-83502500D03*
D16*
X140493750Y-80962500D03*
D15*
X143033750Y-77152500D03*
D17*
X140493750Y-75882500D03*
X140493750Y-86042500D03*
%TD*%
D15*
%TO.C,MX5*%
X145573750Y-64452500D03*
D16*
X140493750Y-61912500D03*
D15*
X143033750Y-58102500D03*
D17*
X140493750Y-56832500D03*
X140493750Y-66992500D03*
%TD*%
D15*
%TO.C,MX4*%
X164623750Y-121602500D03*
D16*
X159543750Y-119062500D03*
D15*
X162083750Y-115252500D03*
D17*
X159543750Y-113982500D03*
X159543750Y-124142500D03*
%TD*%
D15*
%TO.C,MX3*%
X164623750Y-102552500D03*
D16*
X159543750Y-100012500D03*
D15*
X162083750Y-96202500D03*
D17*
X159543750Y-94932500D03*
X159543750Y-105092500D03*
%TD*%
D15*
%TO.C,MX2*%
X164623750Y-83502500D03*
D16*
X159543750Y-80962500D03*
D15*
X162083750Y-77152500D03*
D17*
X159543750Y-75882500D03*
X159543750Y-86042500D03*
%TD*%
D15*
%TO.C,MX1*%
X164623750Y-64452500D03*
D16*
X159543750Y-61912500D03*
D15*
X162083750Y-58102500D03*
D17*
X159543750Y-56832500D03*
X159543750Y-66992500D03*
%TD*%
D11*
%TO.C,D15*%
X104043750Y-107950000D03*
X100743750Y-107950000D03*
%TD*%
%TO.C,D14*%
X104043750Y-88900000D03*
X100743750Y-88900000D03*
%TD*%
%TO.C,D13*%
X104043750Y-69850000D03*
X100743750Y-69850000D03*
%TD*%
%TO.C,D12*%
X123156250Y-127000000D03*
X119856250Y-127000000D03*
%TD*%
%TO.C,D11*%
X123156250Y-107950000D03*
X119856250Y-107950000D03*
%TD*%
%TO.C,D10*%
X123093750Y-88900000D03*
X119793750Y-88900000D03*
%TD*%
%TO.C,D9*%
X123093750Y-69850000D03*
X119793750Y-69850000D03*
%TD*%
%TO.C,D8*%
X142143750Y-127000000D03*
X138843750Y-127000000D03*
%TD*%
%TO.C,D7*%
X142143750Y-107950000D03*
X138843750Y-107950000D03*
%TD*%
%TO.C,D6*%
X142143750Y-88900000D03*
X138843750Y-88900000D03*
%TD*%
%TO.C,D5*%
X142143750Y-69850000D03*
X138843750Y-69850000D03*
%TD*%
%TO.C,D4*%
X161193750Y-127000000D03*
X157893750Y-127000000D03*
%TD*%
%TO.C,D3*%
X161193750Y-107950000D03*
X157893750Y-107950000D03*
%TD*%
%TO.C,D2*%
X161193750Y-88900000D03*
X157893750Y-88900000D03*
%TD*%
%TO.C,D1*%
X161193750Y-69850000D03*
X157893750Y-69850000D03*
%TD*%
M02*
