%TF.GenerationSoftware,KiCad,Pcbnew,(5.1.10)-1*%
%TF.CreationDate,2021-05-19T15:55:05-05:00*%
%TF.ProjectId,smol-keypad,736d6f6c-2d6b-4657-9970-61642e6b6963,rev?*%
%TF.SameCoordinates,Original*%
%TF.FileFunction,Soldermask,Top*%
%TF.FilePolarity,Negative*%
%FSLAX46Y46*%
G04 Gerber Fmt 4.6, Leading zero omitted, Abs format (unit mm)*
G04 Created by KiCad (PCBNEW (5.1.10)-1) date 2021-05-19 15:55:05*
%MOMM*%
%LPD*%
G01*
G04 APERTURE LIST*
%ADD10C,2.200000*%
%ADD11C,1.600000*%
%ADD12R,1.600000X1.600000*%
%ADD13C,3.987800*%
%ADD14C,1.750000*%
G04 APERTURE END LIST*
D10*
%TO.C,H4*%
X167877984Y-132754576D03*
%TD*%
%TO.C,H3*%
X94059296Y-132754576D03*
%TD*%
%TO.C,H2*%
X167877984Y-30360912D03*
%TD*%
%TO.C,H1*%
X94059296Y-30360912D03*
%TD*%
D11*
%TO.C,U1*%
X156051250Y-34448750D03*
X153511250Y-34448750D03*
X150971250Y-34448750D03*
X148431250Y-34448750D03*
X145891250Y-34448750D03*
X143351250Y-34448750D03*
X140811250Y-34448750D03*
X138271250Y-34448750D03*
X135731250Y-34448750D03*
X133191250Y-34448750D03*
X130651250Y-34448750D03*
X128111250Y-34448750D03*
X128111250Y-49688750D03*
X130651250Y-49688750D03*
X133191250Y-49688750D03*
X135731250Y-49688750D03*
X138271250Y-49688750D03*
X140811250Y-49688750D03*
X143351250Y-49688750D03*
X145891250Y-49688750D03*
X148431250Y-49688750D03*
X150971250Y-49688750D03*
X153511250Y-49688750D03*
D12*
X156051250Y-49688750D03*
%TD*%
D13*
%TO.C,MX16*%
X102393750Y-119062500D03*
D14*
X102393750Y-113982500D03*
X102393750Y-124142500D03*
%TD*%
D13*
%TO.C,MX15*%
X102393750Y-100012500D03*
D14*
X102393750Y-94932500D03*
X102393750Y-105092500D03*
%TD*%
D13*
%TO.C,MX14*%
X102393750Y-80962500D03*
D14*
X102393750Y-75882500D03*
X102393750Y-86042500D03*
%TD*%
D13*
%TO.C,MX13*%
X102393750Y-61912500D03*
D14*
X102393750Y-56832500D03*
X102393750Y-66992500D03*
%TD*%
D13*
%TO.C,MX12*%
X121443750Y-119062500D03*
D14*
X121443750Y-113982500D03*
X121443750Y-124142500D03*
%TD*%
D13*
%TO.C,MX11*%
X121443750Y-100012500D03*
D14*
X121443750Y-94932500D03*
X121443750Y-105092500D03*
%TD*%
D13*
%TO.C,MX10*%
X121443750Y-80962500D03*
D14*
X121443750Y-75882500D03*
X121443750Y-86042500D03*
%TD*%
D13*
%TO.C,MX9*%
X121443750Y-61912500D03*
D14*
X121443750Y-56832500D03*
X121443750Y-66992500D03*
%TD*%
D13*
%TO.C,MX8*%
X140493750Y-119062500D03*
D14*
X140493750Y-113982500D03*
X140493750Y-124142500D03*
%TD*%
D13*
%TO.C,MX7*%
X140493750Y-100012500D03*
D14*
X140493750Y-94932500D03*
X140493750Y-105092500D03*
%TD*%
D13*
%TO.C,MX6*%
X140493750Y-80962500D03*
D14*
X140493750Y-75882500D03*
X140493750Y-86042500D03*
%TD*%
D13*
%TO.C,MX5*%
X140493750Y-61912500D03*
D14*
X140493750Y-56832500D03*
X140493750Y-66992500D03*
%TD*%
D13*
%TO.C,MX4*%
X159543750Y-119062500D03*
D14*
X159543750Y-113982500D03*
X159543750Y-124142500D03*
%TD*%
D13*
%TO.C,MX3*%
X159543750Y-100012500D03*
D14*
X159543750Y-94932500D03*
X159543750Y-105092500D03*
%TD*%
D13*
%TO.C,MX2*%
X159543750Y-80962500D03*
D14*
X159543750Y-75882500D03*
X159543750Y-86042500D03*
%TD*%
D13*
%TO.C,MX1*%
X159543750Y-61912500D03*
D14*
X159543750Y-56832500D03*
X159543750Y-66992500D03*
%TD*%
M02*
