M48
; DRILL file {KiCad (5.1.10)-1} date 05/19/21 15:55:06
; FORMAT={-:-/ absolute / inch / decimal}
; #@! TF.CreationDate,2021-05-19T15:55:06-05:00
; #@! TF.GenerationSoftware,Kicad,Pcbnew,(5.1.10)-1
; #@! TF.FileFunction,Plated,1,2,PTH
FMAT,2
INCH
T1C0.0433
T2C0.0579
%
G90
G05
T1
X5.0438Y-1.3562
X5.0438Y-1.9563
X5.1437Y-1.3562
X5.1437Y-1.9563
X5.2437Y-1.3562
X5.2437Y-1.9563
X5.3438Y-1.3562
X5.3438Y-1.9563
X5.4437Y-1.3562
X5.4437Y-1.9563
X5.5438Y-1.3562
X5.5438Y-1.9563
X5.6437Y-1.3562
X5.6437Y-1.9563
X5.7437Y-1.3562
X5.7437Y-1.9563
X5.8438Y-1.3562
X5.8438Y-1.9563
X5.9437Y-1.3562
X5.9437Y-1.9563
X6.0438Y-1.3562
X6.0438Y-1.9563
X6.1437Y-1.3562
X6.1437Y-1.9563
T2
X4.1312Y-2.2875
X4.1312Y-3.0375
X4.1312Y-3.7875
X4.1312Y-4.5375
X4.2313Y-2.5375
X4.2313Y-3.2875
X4.2313Y-4.0375
X4.2313Y-4.7875
X4.8812Y-2.2875
X4.8812Y-3.0375
X4.8812Y-3.7875
X4.8812Y-4.5375
X4.9813Y-2.5375
X4.9813Y-3.2875
X4.9813Y-4.0375
X4.9813Y-4.7875
X5.6312Y-2.2875
X5.6312Y-3.0375
X5.6312Y-3.7875
X5.6312Y-4.5375
X5.7313Y-2.5375
X5.7313Y-3.2875
X5.7313Y-4.0375
X5.7313Y-4.7875
X6.3812Y-2.2875
X6.3812Y-3.0375
X6.3812Y-3.7875
X6.3812Y-4.5375
X6.4813Y-2.5375
X6.4813Y-3.2875
X6.4813Y-4.0375
X6.4813Y-4.7875
T0
M30
