M48
; DRILL file {KiCad (5.1.10)-1} date 05/20/21 03:36:15
; FORMAT={-:-/ absolute / inch / decimal}
; #@! TF.CreationDate,2021-05-20T03:36:15-05:00
; #@! TF.GenerationSoftware,Kicad,Pcbnew,(5.1.10)-1
; #@! TF.FileFunction,NonPlated,1,2,NPTH
FMAT,2
INCH
T1C0.0591
T2C0.0670
T3C0.1181
T4C0.1570
%
G90
G05
T2
X3.8312Y-2.4609
X3.8312Y-3.2109
X3.8312Y-3.9609
X3.8312Y-4.7109
X4.2312Y-2.4609
X4.2312Y-3.2109
X4.2312Y-3.9609
X4.2312Y-4.7109
X4.5812Y-2.4609
X4.5812Y-3.2109
X4.5812Y-3.9609
X4.5812Y-4.7109
X4.9812Y-2.4609
X4.9812Y-3.2109
X4.9812Y-3.9609
X4.9812Y-4.7109
X5.3312Y-2.4609
X5.3312Y-3.2109
X5.3312Y-3.9609
X5.3312Y-4.7109
X5.7312Y-2.4609
X5.7312Y-3.2109
X5.7312Y-3.9609
X5.7312Y-4.7109
X6.0812Y-2.4609
X6.0812Y-3.2109
X6.0812Y-3.9609
X6.0812Y-4.7109
X6.4812Y-2.4609
X6.4812Y-3.2109
X6.4812Y-3.9609
X6.4812Y-4.7109
T3
X3.8812Y-2.3609
X3.8812Y-3.1109
X3.8812Y-3.8609
X3.8812Y-4.6109
X4.1312Y-2.2609
X4.1312Y-3.0109
X4.1312Y-3.7609
X4.1312Y-4.5109
X4.6312Y-2.3609
X4.6312Y-3.1109
X4.6312Y-3.8609
X4.6312Y-4.6109
X4.8812Y-2.2609
X4.8812Y-3.0109
X4.8812Y-3.7609
X4.8812Y-4.5109
X5.3812Y-2.3609
X5.3812Y-3.1109
X5.3812Y-3.8609
X5.3812Y-4.6109
X5.6312Y-2.2609
X5.6312Y-3.0109
X5.6312Y-3.7609
X5.6312Y-4.5109
X6.1312Y-2.3609
X6.1312Y-3.1109
X6.1312Y-3.8609
X6.1312Y-4.6109
X6.3812Y-2.2609
X6.3812Y-3.0109
X6.3812Y-3.7609
X6.3812Y-4.5109
T4
X4.0312Y-2.4609
X4.0312Y-3.2109
X4.0312Y-3.9609
X4.0312Y-4.7109
X4.7812Y-2.4609
X4.7812Y-3.2109
X4.7812Y-3.9609
X4.7812Y-4.7109
X5.5312Y-2.4609
X5.5312Y-3.2109
X5.5312Y-3.9609
X5.5312Y-4.7109
X6.2812Y-2.4609
X6.2812Y-3.2109
X6.2812Y-3.9609
X6.2812Y-4.7109
T1
G00X4.0057Y-1.4436
M15
G01X4.0568Y-1.4436
M16
G05
G00X4.0057Y-1.8845
M15
G01X4.0568Y-1.8845
M16
G05
T0
M30
